<?xml version="1.0" encoding="utf-8"?>
<!-- Generator: Adobe Illustrator 19.1.0, SVG Export Plug-In . SVG Version: 6.00 Build 0)  -->
<svg version="1.1" xmlns="http://www.w3.org/2000/svg" xmlns:xlink="http://www.w3.org/1999/xlink" x="0px" y="0px"
	 viewBox="0 0 80 90" style="enable-background:new 0 0 80 90;" xml:space="preserve">
<style type="text/css">
	.st0{display:none;}
	.st1{display:inline;fill:#E59617;}
	.st2{fill:#FFFFFF;}
</style>
<g id="Layer_2" class="st0">
	<rect x="-2" y="-1" class="st1" width="87" height="95"/>
</g>
<g id="Layer_1">
	<g>
		<g>
			<polygon class="st2" points="70,40 55,25 40,25 55,40 40,40 40,50 65,50 40,75 25,60 40,60 40,50 15,50 40,25 25,25 0,50 10,60 
				40,90 80,50 			"/>
			<polygon class="st2" points="35,15 40,10 45,15 50,10 55,5 50,0 45,5 40,0 35,5 30,0 25,5 30,10 			"/>
		</g>
	</g>
</g>
</svg>
