<?xml version="1.0" encoding="utf-8"?>
<!-- Generator: Adobe Illustrator 19.1.0, SVG Export Plug-In . SVG Version: 6.00 Build 0)  -->
<svg version="1.1" id="Layer_1" xmlns="http://www.w3.org/2000/svg" xmlns:xlink="http://www.w3.org/1999/xlink" x="0px" y="0px"
	 viewBox="-279 276 80 90" style="enable-background:new -279 276 80 90;" xml:space="preserve">
<g id="Layer_1_1_">
	<g>
		<g>
			<polygon points="-209,316 -224,301 -239,301 -224,316 -239,316 -239,326 -214,326 -239,351 -254,336 -239,336 -239,326 -264,326 
				-239,301 -254,301 -279,326 -269,336 -239,366 -199,326 			"/>
			<polygon points="-244,291 -239,286 -234,291 -229,286 -224,281 -229,276 -234,281 -239,276 -244,281 -249,276 -254,281 -249,286 
							"/>
		</g>
	</g>
</g>
</svg>
