<?xml version="1.0" standalone="no"?>
<!DOCTYPE svg PUBLIC "-//W3C//DTD SVG 20010904//EN"
 "http://www.w3.org/TR/2001/REC-SVG-20010904/DTD/svg10.dtd">
<svg version="1.0" xmlns="http://www.w3.org/2000/svg"
 width="720.000000pt" height="720.000000pt" viewBox="0 0 720.000000 720.000000"
 preserveAspectRatio="xMidYMid meet">
<metadata>
Created by potrace 1.11, written by Peter Selinger 2001-2013
</metadata>
<g transform="translate(0.000000,720.000000) scale(0.100000,-0.100000)"
fill="#000000" stroke="none">
<path d="M2603 7004 c-106 -106 -193 -198 -193 -204 0 -6 178 -188 395 -405
l395 -395 200 200 200 200 195 -195 c107 -107 199 -195 205 -195 6 0 188 178
405 395 l395 395 -200 200 -200 200 -200 -200 -200 -200 -200 200 -200 200
-200 -200 -200 -200 -200 200 c-110 110 -201 200 -203 199 -1 0 -89 -88 -194
-195z"/>
<path d="M2550 5200 l-155 -5 -998 -998 -997 -997 1600 -1600 1600 -1600 1600
1600 1600 1600 -1000 1000 -1001 1001 -1047 2 c-576 1 -1117 0 -1202 -3z
m1651 -601 c325 -325 589 -593 586 -595 -5 -6 -22 -7 -87 -5 -25 0 -54 1 -65
1 -49 -1 -935 -1 -982 0 -52 1 -53 0 -53 -27 -3 -224 1 -676 5 -683 3 -6 2
-10 -2 -10 -5 0 -7 -18 -5 -41 4 -34 7 -40 23 -36 11 3 19 2 19 -1 0 -4 69 -6
152 -5 160 2 283 3 308 2 8 -1 29 0 45 1 17 0 80 1 140 0 61 -1 153 -1 205 -1
52 0 102 0 110 0 8 0 24 0 35 1 17 1 332 2 373 1 10 0 54 0 115 0 6 0 64 -1
127 -1 63 0 164 0 224 0 59 1 110 -1 113 -4 2 -2 -444 -452 -991 -1000 l-996
-996 -600 600 c-330 330 -600 603 -600 606 0 3 4 3 10 -1 5 -3 127 -5 272 -5
145 1 272 1 283 1 67 -2 108 0 115 4 5 3 11 1 15 -5 4 -6 10 -8 15 -5 7 5 83
6 160 4 8 -1 26 0 40 1 14 0 81 1 149 0 69 0 128 3 133 8 5 5 9 182 9 393 0
349 -2 385 -17 396 -9 7 -21 10 -25 7 -5 -3 -39 -5 -76 -4 -38 1 -77 1 -88 1
-11 -1 -36 -1 -55 0 -19 0 -39 0 -45 1 -20 0 -200 -1 -220 -1 -11 -1 -36 -1
-55 0 -47 1 -43 1 -150 0 -52 0 -102 0 -110 0 -8 0 -24 0 -35 -1 -17 -1 -332
-2 -372 -1 -7 0 -32 1 -56 1 -23 1 -47 1 -52 0 -6 -1 -14 -2 -20 -1 -27 5
-415 5 -415 1 0 -3 -32 -3 -70 0 -39 3 -76 2 -83 -1 -7 -4 -21 -3 -31 0 -16 6
151 178 970 998 544 545 995 992 1002 992 6 1 278 -265 603 -590z"/>
</g>
</svg>
